<svg viewBox="0 0 760 270" xmlns="http://www.w3.org/2000/svg" font-family="'Segoe UI',Arial,sans-serif">
  <defs>
    <pattern id="d" width="24" height="24" patternUnits="userSpaceOnUse"><circle cx="2" cy="2" r="1.2" fill="#EDE6D8" opacity=".06"/></pattern>
    <linearGradient id="bg" x1="0" y1="0" x2="0" y2="1"><stop offset="0" stop-color="#14141F"/><stop offset="1" stop-color="#0E0E16"/></linearGradient>
  </defs>
  <rect width="760" height="270" rx="18" fill="url(#bg)"/>
  <rect width="760" height="270" rx="18" fill="url(#d)"/>
  <rect x="1.5" y="1.5" width="757" height="267" rx="16.5" fill="none" stroke="#FF5D73" stroke-opacity=".35"/>
  <g stroke="#5468FF" stroke-width="1.3" opacity=".5">
    <path d="M24 30 h14 M31 23 v14"/><path d="M736 30 h-14 M729 23 v14"/>
    <path d="M24 240 h14 M31 233 v14"/><path d="M736 240 h-14 M729 233 v14"/>
  </g>
  <text x="44" y="52" font-size="12" letter-spacing="5" font-weight="700" fill="#EDE6D8" opacity=".55" font-family="'Courier New',monospace">// BY THE NUMBERS</text>
  <text x="44" y="80" font-size="22" font-weight="900" fill="#FF5D73">SkrChowdhury</text>
  <line x1="380" y1="60" x2="380" y2="230" stroke="#EDE6D8" stroke-opacity=".12"/>
  
    <g transform="translate(44,128)">
      <text x="0" y="0" font-size="30" font-weight="900" fill="#5468FF">4</text>
      <rect x="1" y="10" width="7" height="7" rx="1.5" fill="#FF5D73"/>
      <text x="14" y="20" font-size="12" font-family="'Courier New',monospace" fill="#EDE6D8" opacity=".78">stars earned</text>
    </g>
    <g transform="translate(196,128)">
      <text x="0" y="0" font-size="30" font-weight="900" fill="#5468FF">165</text>
      <rect x="1" y="10" width="7" height="7" rx="1.5" fill="#5468FF"/>
      <text x="14" y="20" font-size="12" font-family="'Courier New',monospace" fill="#EDE6D8" opacity=".78">public repos</text>
    </g>
    <g transform="translate(44,190)">
      <text x="0" y="0" font-size="30" font-weight="900" fill="#5468FF">14</text>
      <rect x="1" y="10" width="7" height="7" rx="1.5" fill="#FF5D73"/>
      <text x="14" y="20" font-size="12" font-family="'Courier New',monospace" fill="#EDE6D8" opacity=".78">followers</text>
    </g>
    <g transform="translate(196,190)">
      <text x="0" y="0" font-size="30" font-weight="900" fill="#5468FF">3</text>
      <rect x="1" y="10" width="7" height="7" rx="1.5" fill="#5468FF"/>
      <text x="14" y="20" font-size="12" font-family="'Courier New',monospace" fill="#EDE6D8" opacity=".78">total forks</text>
    </g>
  <text x="400" y="104" font-size="12" letter-spacing="4" font-weight="700" fill="#EDE6D8" opacity=".55" font-family="'Courier New',monospace">TOP LANGUAGES</text>
  <rect x="400" y="128" width="316" height="18" rx="4" fill="#EDE6D8" opacity=".08"/>
  <rect x="400.0" y="128" width="175.9" height="18" rx="3" fill="#F1E05A"/><rect x="577.9" y="128" width="40.0" height="18" rx="3" fill="#563D7C"/><rect x="619.9" y="128" width="36.9" height="18" rx="3" fill="#3178C6"/><rect x="658.8" y="128" width="34.0" height="18" rx="3" fill="#E34C26"/><rect x="694.8" y="128" width="5.9" height="18" rx="3" fill="#B07219"/><rect x="702.7" y="128" width="2.7" height="18" rx="3" fill="#A855F7"/>
  <g transform="translate(400,180)">
        <rect x="0" y="-9" width="10" height="10" rx="2" fill="#F1E05A"/>
        <text x="16" y="0" font-size="12.5" fill="#EDE6D8" opacity=".85">JavaScript <tspan opacity=".55">56.3%</tspan></text></g><g transform="translate(560,180)">
        <rect x="0" y="-9" width="10" height="10" rx="2" fill="#563D7C"/>
        <text x="16" y="0" font-size="12.5" fill="#EDE6D8" opacity=".85">CSS <tspan opacity=".55">13.3%</tspan></text></g><g transform="translate(400,204)">
        <rect x="0" y="-9" width="10" height="10" rx="2" fill="#3178C6"/>
        <text x="16" y="0" font-size="12.5" fill="#EDE6D8" opacity=".85">TypeScript <tspan opacity=".55">12.3%</tspan></text></g><g transform="translate(560,204)">
        <rect x="0" y="-9" width="10" height="10" rx="2" fill="#E34C26"/>
        <text x="16" y="0" font-size="12.5" fill="#EDE6D8" opacity=".85">HTML <tspan opacity=".55">11.4%</tspan></text></g><g transform="translate(400,228)">
        <rect x="0" y="-9" width="10" height="10" rx="2" fill="#B07219"/>
        <text x="16" y="0" font-size="12.5" fill="#EDE6D8" opacity=".85">Java <tspan opacity=".55">2.5%</tspan></text></g><g transform="translate(560,228)">
        <rect x="0" y="-9" width="10" height="10" rx="2" fill="#A855F7"/>
        <text x="16" y="0" font-size="12.5" fill="#EDE6D8" opacity=".85">Objective-C <tspan opacity=".55">1.5%</tspan></text></g>
  
</svg>